<svg width="50" height="51" viewBox="0 0 50 51" fill="none" xmlns="http://www.w3.org/2000/svg">
<path d="M0 3.60459C0 1.61447 1.65422 0.000178182 3.6949 0.000178182H46.3051C48.3457 0.000178182 50 1.61447 50 3.60459V46.713C50 48.7038 48.3457 50.3174 46.3051 50.3174H3.6949C1.65422 50.3174 0 48.7038 0 46.713V3.60459Z" fill="black"/>
<path fill-rule="evenodd" clip-rule="evenodd" d="M15.1565 42.1211V19.4H7.60463V42.1211H15.1565ZM11.3806 16.2979C14.0141 16.2979 15.6532 14.5531 15.6532 12.3727C15.6041 10.1433 14.0141 8.44696 11.4305 8.44696C8.84723 8.44696 7.1582 10.1433 7.1582 12.3727C7.1582 14.5531 8.79699 16.2979 11.3313 16.2979H11.3804H11.3806Z" fill="white"/>
<path fill-rule="evenodd" clip-rule="evenodd" d="M19.3354 42.1211H26.8874V29.4327C26.8874 28.7536 26.9365 28.0752 27.1359 27.5898C27.6818 26.233 28.9245 24.8278 31.0107 24.8278C33.7434 24.8278 34.8366 26.9114 34.8366 29.9658V42.1211H42.3879V29.0931C42.3879 22.1142 38.6622 18.8668 33.6935 18.8668C29.6194 18.8668 27.8309 21.144 26.8372 22.6951H26.8876V19.4H19.3357C19.4348 21.532 19.3357 42.1211 19.3357 42.1211H19.3354Z" fill="white"/>
</svg>
